<?xml version="1.0" encoding="UTF-8" standalone="no"?>
<!-- Created with Inkscape (http://www.inkscape.org/) -->

<svg
   width="665mm"
   height="190mm"
   viewBox="0 0 665 190"
   version="1.1"
   id="svg1"
   xml:space="preserve"
   sodipodi:docname="bestcloudresell-logo-plain.svg"
   inkscape:version="1.4 (e7c3feb1, 2024-10-09)"
   xmlns:inkscape="http://www.inkscape.org/namespaces/inkscape"
   xmlns:sodipodi="http://sodipodi.sourceforge.net/DTD/sodipodi-0.dtd"
   xmlns="http://www.w3.org/2000/svg"
   xmlns:svg="http://www.w3.org/2000/svg"><sodipodi:namedview
     id="namedview1"
     pagecolor="#ffffff"
     bordercolor="#000000"
     borderopacity="0.25"
     inkscape:showpageshadow="2"
     inkscape:pageopacity="0.0"
     inkscape:pagecheckerboard="0"
     inkscape:deskcolor="#d1d1d1"
     inkscape:document-units="mm"
     inkscape:zoom="0.2185133"
     inkscape:cx="1146.3833"
     inkscape:cy="375.2632"
     inkscape:window-width="2560"
     inkscape:window-height="1325"
     inkscape:window-x="0"
     inkscape:window-y="25"
     inkscape:window-maximized="0"
     inkscape:current-layer="layer1" /><defs
     id="defs1"><rect
       x="827.69824"
       y="134.63483"
       width="659.4047"
       height="628.80587"
       id="rect2" /></defs><g
     inkscape:label="Layer 1"
     inkscape:groupmode="layer"
     id="layer1"
     transform="translate(-6.114627,-6.474415)"><g
       id="g1"
       transform="matrix(0.86904413,0,0,0.86904413,17.022085,13.263668)"><g
         id="g9"
         transform="matrix(3.866883,0,0,3.866883,-738.9789,-137.33757)"><path
           style="fill:#e1e1e1;fill-opacity:1"
           d="m 215.1041,57.31229 c -0.79386,-1.40463 -2.31662,-3.86375 -4.37282,-4.130207 -2.89985,-0.375782 -0.32611,-2.922822 1.43889,-1.534514 3.04915,2.398407 2.93393,5.664721 2.93393,5.664721 z"
           id="path10"
           sodipodi:nodetypes="cssc" /></g><path
         style="fill:#f9c712;stroke-width:3.86688"
         d="m 95.720215,153.73678 c -0.276869,-0.0808 9.803785,-0.22196 22.401455,-0.31361 29.17078,-0.2119 41.92311,-0.51669 44.26914,-1.05767 8.01137,-1.84744 14.06158,-4.80812 18.91602,-9.25666 2.82,-2.5842 5.53197,-5.84599 5.2457,-6.30917 -0.0754,-0.12219 -3.1e-4,-0.38692 0.16705,-0.5885 0.38243,-0.46062 0.13418,-0.46654 -0.72539,-0.0193 -0.36735,0.19218 -0.9796,0.47276 -1.36029,0.62384 -0.3805,0.1512 -0.69217,0.44701 -0.69217,0.65764 0,0.21075 -0.21462,0.38282 -0.47648,0.38282 -0.26218,0 -0.54167,0.16976 -0.62137,0.37741 -0.0797,0.20765 -0.31824,0.37741 -0.5303,0.37741 -0.21191,0 -0.38553,0.15584 -0.38553,0.34686 0,0.68154 -0.62215,0.92647 -1.24502,0.49017 -0.53661,-0.37587 -0.59937,-0.37509 -0.8134,0.008 -0.13341,0.23859 -0.54678,0.41441 -0.97453,0.41441 -0.41956,0 -0.71522,0.12336 -0.67965,0.28306 0.11562,0.52052 -0.50029,0.50003 -0.6366,-0.0232 -0.10711,-0.41005 -0.33913,-0.51368 -1.14982,-0.51368 -0.55853,0 -1.08555,-0.1133 -1.17109,-0.25173 -0.2324,-0.37586 -1.02785,-0.30355 -1.38438,0.12606 -0.42752,0.51514 -0.58332,0.48285 -1.4843,-0.30781 -0.87647,-0.76908 -0.97971,-1.07661 -0.36155,-1.07661 0.23085,0 0.34221,-0.077 0.24825,-0.17131 -0.23665,-0.23665 -2.70059,-0.2525 -2.84533,-0.0193 -0.33333,0.53908 -2.10126,-0.11872 -2.10126,-0.78173 0,-0.15777 -0.36813,-0.28731 -0.81804,-0.28808 -1.19711,-0.002 -2.53022,-0.42691 -3.14927,-1.00361 -0.29814,-0.27803 -0.66027,-0.50521 -0.80451,-0.50521 -0.14423,0 -0.26217,-0.23008 -0.26217,-0.51128 0,-0.28112 -0.16898,-0.57621 -0.37586,-0.65552 -0.25444,-0.0974 -0.32675,-0.33912 -0.22428,-0.74719 0.11253,-0.44903 0.0479,-0.60301 -0.25367,-0.60301 -0.22273,0 -0.40486,-0.12142 -0.40486,-0.26952 0,-0.51909 -0.81847,-1.03435 -1.68817,-1.06281 -0.46325,-0.0155 -0.6187,-0.681 -0.19682,-0.8429 0.20456,-0.0785 0.31863,-0.22931 0.25328,-0.33488 -0.11639,-0.18831 0.51662,-1.90873 1.62305,-4.41161 0.68873,-1.55804 3.06017,-8.49418 3.77458,-11.04018 0.63173,-2.25133 2.15165,-10.09759 2.63965,-13.62658 0.62388,-4.511454 0.72214,-6.302099 0.38089,-6.93976 -0.23124,-0.431854 -0.2382,-0.612623 -0.0271,-0.68317 0.15815,-0.05274 0.28769,-0.298562 0.28769,-0.546189 0,-0.32857 -0.26449,-0.492587 -0.97932,-0.606861 -0.53866,-0.08612 -1.0448,-0.327139 -1.12476,-0.535575 -0.16396,-0.427422 -1.16803,-0.524052 -1.16803,-0.112411 0,0.146594 -0.10364,0.202548 -0.23008,0.124282 -0.12645,-0.07827 -0.28229,1.6e-5 -0.34609,0.173932 -0.0928,0.253011 -0.18252,0.25332 -0.44937,0.0016 -0.18329,-0.173043 -0.53092,-0.31461 -0.77218,-0.31461 -0.38734,0 -1.91012,-0.769738 -2.60693,-1.317741 -0.13844,-0.108853 -0.56577,-0.43352 -0.94967,-0.72144 -0.38398,-0.287929 -0.66704,-0.673503 -0.62926,-0.856851 0.10827,-0.524775 -1.6597,-1.617931 -2.16197,-1.336844 -0.51766,0.289707 -1.12824,-0.01083 -0.63785,-0.313836 0.26372,-0.162873 0.23627,-0.309969 -0.13263,-0.717709 -0.25521,-0.28205 -0.59055,-0.440712 -0.74511,-0.352544 -0.15468,0.08813 -0.19566,0.06636 -0.0917,-0.04845 0.31322,-0.345351 -0.54809,-1.088295 -1.09575,-0.945081 -0.27571,0.07212 -0.69291,-0.05015 -0.9296,-0.2725 -0.87001,-0.817343 -2.21027,-1.82339 -2.88338,-2.164375 -0.3805,-0.19288 -0.69217,-0.455013 -0.69217,-0.582562 0,-0.127529 -1.30256,-1.530844 -2.8946,-3.118436 -1.59199,-1.587591 -2.89455,-3.007047 -2.89455,-3.154352 0,-0.180274 -0.11292,-0.174203 -0.34493,0.01856 -0.28344,0.235146 -0.48785,-0.243691 -1.14259,-2.674974 -2.2356,-8.301943 -5.38502,-15.299226 -8.90311,-19.78068 l -0.75524,-0.9621 0.32559,-4.661296 c 0.56217,-8.044156 -0.23742,-18.781305 -1.52974,-20.543254 -0.42489,-0.579302 -0.0445,-0.413482 2.20567,0.961222 3.72327,2.274748 5.98373,4.036782 9.35206,7.289896 3.49102,3.371582 5.51012,5.763287 7.95607,9.424205 4.97873,7.451858 8.32266,16.367959 9.4207,25.11919 0.403,3.21157 0.47922,3.485837 1.04924,3.774314 0.33796,0.17111 0.84634,0.312754 1.12948,0.314803 2.12953,0.01547 9.50344,2.822457 13.2303,5.036549 9.69269,5.758334 16.44446,15.208444 18.88822,26.436888 0.49419,2.27063 0.57292,3.35081 0.56828,7.79574 -0.004,4.38044 -0.0909,5.55911 -0.57021,7.80275 -2.3455,10.97352 -8.26036,19.91306 -17.02589,25.73233 -5.48734,3.64291 -11.72891,5.84692 -18.29604,6.46063 -3.02387,0.28267 -62.603158,0.56202 -63.506988,0.29775 z M 173.302,137.70619 c -0.0835,-0.0835 -0.30085,-0.0924 -0.48243,-0.0193 -0.2007,0.0804 -0.14115,0.13998 0.15196,0.15197 0.26527,0.0116 0.41399,-0.0487 0.33024,-0.13225 z m -9.66133,-46.979062 c -0.0642,-0.103826 -0.27416,-0.188781 -0.46677,-0.188781 -0.19257,0 -0.46268,-0.198216 -0.60014,-0.440477 -0.23627,-0.416169 -0.27417,-0.416645 -0.68707,-0.0085 -0.41457,0.409577 -0.40556,0.44359 0.1744,0.659969 0.71425,0.266428 1.7486,0.251966 1.57942,-0.02204 z m 6.96077,49.018912 c 0,-0.41561 0.4433,-0.48773 0.96498,-0.15699 0.26798,0.16976 0.25097,0.24555 -0.0835,0.37354 -0.65122,0.2498 -0.88149,0.19334 -0.88149,-0.21655 z m -4.76133,-1.65703 c 0.28847,-0.28847 0.5916,-0.45715 0.67381,-0.37509 0.082,0.082 -0.0688,0.31438 -0.33565,0.51638 -0.72357,0.5474 -0.93756,0.45792 -0.33835,-0.14152 z m -2.64355,-1.12735 c -0.55753,-0.55753 -0.49527,-0.68201 0.16859,-0.33681 0.75435,0.39249 0.76391,0.40409 0.47752,0.58112 -0.1365,0.0843 -0.42721,-0.0271 -0.646,-0.24439 z m -1.27882,-0.8653 c 0.0855,-0.13843 0.20533,-0.25173 0.26643,-0.25173 0.0611,0 0.11098,0.1133 0.11098,0.25173 0,0.13844 -0.11988,0.25174 -0.26643,0.25174 -0.14656,0 -0.19644,-0.1133 -0.11098,-0.25174 z m -32.09196,-2.5125 c 6.78016,-0.13341 9.36354,-0.273 10.71034,-0.57949 4.82162,-1.09723 8.28754,-2.94866 11.52084,-6.15426 3.03589,-3.00991 4.8788,-6.33922 6.02808,-10.88988 0.75663,-2.99617 0.7414,-8.0715 -0.0348,-10.94904 -2.23707,-8.313486 -8.1906,-14.098099 -16.89975,-16.420217 l -2.64286,-0.70467 -0.1976,-1.505621 c -1.10566,-8.422106 -3.4723,-14.250558 -8.14887,-20.06862 -0.75111,-0.934444 -1.25925,-1.698988 -1.12917,-1.698988 0.72736,0 4.54355,5.582874 6.05581,8.859307 1.5174,3.287562 2.79444,7.563631 3.21748,10.77343 0.20997,1.592011 0.41669,3.020759 0.45973,3.174993 0.0429,0.15425 1.30148,0.579781 2.79661,0.945666 4.44192,1.087015 8.04161,3.108718 11.09842,6.233218 2.0735,2.1194 2.66849,2.948073 3.98578,5.551102 3.18427,6.29215 3.31145,13.2687 0.36697,20.12886 -2.26959,5.28789 -6.86132,9.64563 -12.45028,11.81581 -3.74136,1.45278 -4.49517,1.53615 -14.48685,1.60278 l -9.1871,0.0611 z m 29.55699,-0.75961 c 0,-0.57922 0.331,-0.63189 0.96184,-0.15313 0.62192,0.47211 0.54872,0.6564 -0.26062,0.6564 -0.53336,0 -0.70115,-0.12026 -0.70115,-0.50339 z M 63.502394,35.919077 c 0.961624,-0.969052 1.805041,-1.76191 1.874262,-1.76191 0.06922,0 -0.660935,0.792858 -1.622563,1.76191 -0.961624,0.969053 -1.805042,1.761914 -1.874259,1.761914 -0.06922,0 0.660932,-0.792861 1.62256,-1.761914 z m 2.89457,-2.612048 c 0,-0.05228 0.198217,-0.250497 0.440477,-0.440475 0.399213,-0.313102 0.408115,-0.304169 0.09505,0.09501 -0.328801,0.419273 -0.535509,0.552607 -0.535509,0.345464 z M 95.043766,20.141632 c 0.181704,-0.0727 0.398791,-0.06377 0.482428,0.01972 0.08364,0.08364 -0.065,0.143113 -0.330348,0.132208 -0.293225,-0.01199 -0.352853,-0.07173 -0.152084,-0.152084 z m 1.76191,-0.251696 c 0.181705,-0.0727 0.398792,-0.06377 0.482428,0.01972 0.08364,0.08364 -0.065,0.143113 -0.330347,0.132209 -0.293226,-0.01199 -0.352853,-0.07173 -0.152085,-0.152085 z m 12.836794,0 c 0.1817,-0.0727 0.39878,-0.06377 0.48242,0.01972 0.0836,0.08364 -0.065,0.143113 -0.33034,0.132209 -0.29323,-0.01199 -0.35286,-0.07173 -0.15209,-0.152085 z M 99.181114,19.636655 c 0.24226,-0.0633 0.638693,-0.0633 0.880956,0 0.24226,0.0633 0.044,0.115117 -0.440479,0.115117 -0.484525,0 -0.682741,-0.05178 -0.440477,-0.115117 z m 7.299346,0 c 0.24226,-0.0633 0.63869,-0.0633 0.88096,0 0.24226,0.0633 0.044,0.115117 -0.44048,0.115117 -0.48453,0 -0.68274,-0.05178 -0.44048,-0.115117 z"
         id="path7" /><path
         style="fill:#3685f0;stroke-width:3.86688"
         d="m 60.939984,153.08907 c -0.292839,-0.14655 -2.010303,-0.3542 -7.047645,-0.44682 -7.418089,-0.1365 -9.434526,-0.3919 -14.427472,-1.82837 C 32.148403,148.70886 25.954782,145.06459 20.702194,139.77404 15.524767,134.5592 11.934741,128.82059 9.7568196,122.27806 3.3775337,103.11453 10.134575,82.971255 26.725541,71.692938 32.299842,67.903605 37.709375,65.801835 44.62475,64.73855 c 1.522798,-0.23414 2.888554,-0.556634 3.035012,-0.716653 0.146478,-0.160012 0.46741,-1.083799 0.71322,-2.052851 1.393659,-5.494241 6.510539,-16.031815 9.117538,-18.776428 0.565323,-0.595163 0.727573,-0.636195 1.806279,-0.456795 0.651836,0.108428 2.382348,0.319946 3.845576,0.470047 6.798449,0.69747 15.260124,3.650488 20.621995,7.196822 1.989793,1.316048 3.685259,2.805111 3.455516,3.034854 -0.272886,0.272886 -2.177253,0.335104 -2.337164,0.07633 -0.08047,-0.130236 -0.280078,-0.152819 -0.443562,-0.05027 -0.163492,0.102588 -0.579878,0.225284 -0.925326,0.272692 -0.345467,0.04741 -0.805669,0.246901 -1.022705,0.443304 -0.217048,0.196437 -0.839733,0.387036 -1.383761,0.423597 -0.544027,0.03674 -1.18815,0.264688 -1.431384,0.506949 -0.243227,0.24226 -0.583826,0.440681 -0.756873,0.440929 -0.173043,2.47e-4 -0.636508,0.509941 -1.029917,1.132656 -0.393413,0.622715 -0.861051,1.132208 -1.039198,1.132208 -0.178147,0 -0.464053,0.338352 -0.635352,0.751908 -0.171303,0.413547 -0.394666,0.700474 -0.496372,0.637614 -0.1017,-0.06288 -0.563633,0.165116 -1.026499,0.506604 -0.462862,0.341485 -0.978859,0.62089 -1.146659,0.62089 -0.181163,0 -0.251618,0.204481 -0.173429,0.503406 0.08627,0.329923 0.0077,0.503403 -0.227915,0.503403 -0.423999,0 -1.461051,1.324338 -1.461051,1.865794 0,0.208812 -0.531596,0.603814 -1.195582,0.888405 -0.657571,0.281857 -1.365482,0.626381 -1.573137,0.765643 -0.207652,0.139246 -1.632865,0.861077 -3.167136,1.604029 -4.12823,1.999051 -7.126816,4.128594 -10.305456,7.318757 -3.006513,3.01741 -4.367223,4.908087 -6.420824,8.921595 -1.322621,2.584895 -1.334863,2.598928 -4.371279,5.011565 -3.404624,2.705206 -9.131555,8.325163 -12.019436,11.794918 -5.292301,6.358658 -9.147379,13.889258 -10.997403,21.482618 -1.130719,4.641 -1.385883,6.90401 -1.371533,12.1641 0.0093,3.38626 -0.06446,4.66148 -0.258269,4.46768 -0.149146,-0.14927 -0.360858,-0.27107 -0.47041,-0.27107 -0.109588,0 0.31198,0.67218 0.936764,1.49374 3.16203,4.15778 10.503064,8.85117 17.304033,11.06307 5.82761,1.89535 10.568594,2.54298 18.626679,2.54445 4.028047,7.3e-4 5.505687,0.24245 5.632684,0.57326 0.199492,0.51983 0.250303,0.73216 -0.233869,0.49005 z M 59.881143,133.1894 c -7.096832,-1.53964 -13.184965,-5.95396 -16.47373,-11.94461 -2.093032,-3.81256 -2.980323,-7.2907 -2.985763,-11.70412 -0.0043,-3.37943 0.408033,-5.6078 1.629578,-8.80958 1.557468,-4.082225 4.535966,-7.953748 8.220521,-10.685221 1.66926,-1.237476 1.761056,-1.35991 2.044963,-2.727479 0.441663,-2.12749 2.063353,-6.104807 3.167305,-7.768073 3.90078,-5.87709 10.298678,-9.492927 17.406979,-9.837733 l 2.844367,-0.137971 1.426416,-1.915019 c 2.093086,-2.810045 5.645173,-6.235949 8.321799,-8.026169 2.461399,-1.646271 6.242754,-3.579364 7.001653,-3.579364 0.24458,0 -0.909638,0.670355 -2.564942,1.489678 -5.045126,2.497179 -8.172646,5.080415 -12.090537,9.98643 l -1.827972,2.288994 -2.474171,0.159509 c -4.473616,0.288392 -8.472994,1.603724 -11.817821,3.886704 -1.688927,1.152761 -4.644908,4.141428 -5.856414,5.921176 -1.132753,1.664059 -2.504591,4.743444 -3.051291,6.849279 -0.639761,2.464287 -0.613257,2.420626 -2.063087,3.398681 -3.319058,2.239033 -6.819522,6.639411 -8.266607,10.391838 -1.441794,3.73869 -1.62341,4.76044 -1.6201,9.11435 0.0033,4.35508 0.190676,5.40772 1.624222,9.12503 1.502516,3.89616 4.843743,7.93036 8.713472,10.52071 2.341344,1.56728 4.054902,2.36928 7.117636,3.33124 l 2.174341,0.68297 29.700805,0.12993 29.700815,0.12992 -29.197413,0.0391 c -24.051149,0.0309 -29.480756,-0.0232 -30.805024,-0.30974 z"
         id="path6"
         sodipodi:nodetypes="scsssssssssssssssscsssssssssssssssssssssssssssscssssssscssssscsssssssssscccccc" /><path
         style="fill:#eea803;stroke-width:3.86688"
         d="m 95.829319,153.1064 c 0.165541,-0.19954 1.284749,-1.07426 2.487113,-1.94396 2.838648,-2.05332 19.674118,-14.65089 21.333278,-15.96315 0.70198,-0.55525 1.24013,-1.11854 1.19593,-1.25183 -0.0507,-0.15236 3.26497,-0.24284 8.91758,-0.244 7.57843,-0.001 9.30507,-0.07 10.94467,-0.43406 4.38172,-0.97341 8.17281,-2.94343 11.20274,-5.82163 2.40451,-2.28401 3.92296,-4.4166 5.10398,-7.16819 2.94444,-6.86016 2.81726,-13.83671 -0.36697,-20.12887 -1.31729,-2.603027 -1.91229,-3.4317 -3.98579,-5.551103 -3.05681,-3.1245 -6.65649,-5.146203 -11.09842,-6.233219 -1.49513,-0.365884 -2.7536,-0.791431 -2.7966,-0.945665 -0.0429,-0.15425 -0.2498,-1.582982 -0.45974,-3.174993 -0.42234,-3.204653 -1.69968,-7.48501 -3.2104,-10.758129 -1.62053,-3.511045 -5.01306,-8.431 -6.12263,-8.879237 -0.3863,-0.156029 -0.41944,-0.219562 -0.12064,-0.231124 0.46831,-0.01817 1.58163,-3.720583 2.58791,-8.606398 1.31338,-6.376617 1.50708,-17.86991 0.4187,-24.845626 -0.59426,-3.809104 -0.59689,-3.84128 -0.26449,-3.271692 0.46503,0.796767 1.26203,7.151864 1.42034,11.325781 0.0978,2.578585 0.0348,5.987679 -0.16666,8.854269 l -0.32559,4.661295 0.75524,0.9621 c 3.51809,4.481455 6.66751,11.478738 8.90311,19.780681 0.65474,2.431302 0.85926,2.910111 1.14259,2.674974 0.2324,-0.192764 0.34492,-0.198835 0.34492,-0.01856 0,0.147289 1.30256,1.56676 2.89456,3.154352 1.59203,1.587591 2.89459,2.990887 2.89459,3.118436 0,0.12753 0.31167,0.3897 0.69217,0.582561 0.67311,0.340982 2.01337,1.347033 2.88338,2.164376 0.23666,0.222346 0.65382,0.344616 0.9296,0.272499 0.54767,-0.143229 1.40906,0.599727 1.09576,0.945082 -0.10402,0.114808 -0.063,0.136578 0.0916,0.04845 0.15467,-0.08817 0.48985,0.07049 0.74511,0.352544 0.3689,0.407735 0.39616,0.55482 0.13263,0.717708 -0.4904,0.303087 0.12026,0.603544 0.63784,0.313837 0.50227,-0.281084 2.27017,0.812068 2.16198,1.336843 -0.0387,0.183368 0.24554,0.568935 0.62926,0.856851 0.38398,0.287928 0.81123,0.612568 0.94966,0.721441 0.69682,0.548003 2.21959,1.31774 2.60694,1.31774 0.24129,0 0.58873,0.141567 0.77218,0.31461 0.26681,0.251734 0.35652,0.251425 0.44937,-0.0016 0.0638,-0.173894 0.21964,-0.252159 0.34608,-0.173932 0.12645,0.07826 0.23008,0.02243 0.23008,-0.124282 0,-0.411637 1.004,-0.314996 1.16803,0.11241 0.08,0.208425 0.58611,0.449444 1.12476,0.535575 0.71464,0.114267 0.97933,0.2783 0.97933,0.606861 0,0.247635 -0.12954,0.493426 -0.28769,0.546189 -0.21152,0.07053 -0.20456,0.251309 0.0271,0.68317 0.34145,0.637661 0.24284,2.428295 -0.38088,6.939745 -0.48801,3.529 -2.00792,11.37529 -2.63965,13.62659 -0.71441,2.54599 -3.08585,9.48218 -3.77459,11.04017 -1.10643,2.50288 -1.7394,4.22337 -1.62304,4.41165 0.0653,0.10557 -0.0487,0.25638 -0.25328,0.33487 -0.42192,0.16203 -0.26643,0.82775 0.19682,0.84291 0.8697,0.0271 1.68817,0.54368 1.68817,1.06277 0,0.14849 0.18213,0.26952 0.40486,0.26952 0.30162,0 0.36619,0.15391 0.25367,0.60301 -0.10248,0.40826 -0.0309,0.64959 0.22428,0.74719 0.20649,0.0793 0.37586,0.37432 0.37586,0.65552 0,0.28112 0.11794,0.51131 0.26217,0.51131 0.14424,0 0.50625,0.22738 0.80451,0.50521 0.61905,0.57671 1.95215,1.00153 3.14926,1.00358 0.44995,7.7e-4 0.81804,0.13031 0.81804,0.28846 0,0.66302 1.76813,1.32082 2.10127,0.78173 0.14462,-0.23394 2.60867,-0.21809 2.84533,0.0193 0.0943,0.0943 -0.0193,0.1713 -0.24826,0.1713 -0.61823,0 -0.51499,0.30742 0.36156,1.07662 0.90098,0.79062 1.05678,0.82291 1.4843,0.3078 0.35653,-0.42953 1.15198,-0.50188 1.38438,-0.12606 0.0855,0.13844 0.61255,0.25174 1.17109,0.25174 0.81061,0 1.04259,0.10363 1.14982,0.51371 0.13611,0.52118 0.75226,0.54167 0.6366,0.0193 -0.0348,-0.16009 0.26024,-0.28306 0.67964,-0.28306 0.42776,0 0.84093,-0.17556 0.97454,-0.41445 0.21422,-0.38244 0.27686,-0.38282 0.81339,-0.008 0.62288,0.4363 1.24502,0.19141 1.24502,-0.49016 0,-0.19064 0.17324,-0.34686 0.38553,-0.34686 0.21191,0 0.45065,-0.16976 0.53031,-0.37741 0.0797,-0.20765 0.35923,-0.37741 0.62137,-0.37741 0.26217,0 0.47647,-0.17246 0.47647,-0.38282 0,-0.21074 0.31129,-0.50656 0.69218,-0.65764 0.3805,-0.15119 0.99282,-0.43178 1.36029,-0.62384 0.85945,-0.44922 1.10767,-0.44326 0.72539,0.0155 -0.16744,0.20147 -0.24246,0.46643 -0.16705,0.5885 0.28615,0.46322 -2.4257,3.72497 -5.2457,6.30917 -4.85445,4.44854 -10.90465,7.40926 -18.91602,9.25666 -2.4291,0.56016 -16.02061,0.86765 -44.11338,0.99801 -19.786511,0.0916 -22.709913,0.0584 -22.448114,-0.25715 z m 75.653621,-13.14369 c 0.33448,-0.12838 0.3515,-0.20379 0.0835,-0.37354 -0.52168,-0.33062 -0.96498,-0.2587 -0.96498,0.15699 0,0.40997 0.23008,0.46658 0.8815,0.21655 z m -5.30463,-1.73229 c 0.26681,-0.20185 0.41778,-0.43417 0.33565,-0.51638 -0.0824,-0.082 -0.38553,0.0866 -0.67381,0.37508 -0.59937,0.59937 -0.38553,0.68885 0.33835,0.14153 z m -2.16727,-1.24421 c -0.25135,-0.20997 -1.21235,-0.63726 -1.21235,-0.53912 0,0.29698 0.82295,0.89557 1.04387,0.75903 0.1365,-0.0843 0.21229,-0.18329 0.16859,-0.22002 z m -1.71574,-0.88985 c 0,-0.13843 -0.0499,-0.25173 -0.11098,-0.25173 -0.0611,0 -0.18097,0.1133 -0.26643,0.25173 -0.0855,0.13844 -0.0348,0.25174 0.11098,0.25174 0.14656,0 0.26643,-0.1133 0.26643,-0.25174 z m -1.51021,-2.92974 c 0,-0.22312 -0.82419,-0.82805 -1.14166,-0.8378 -0.14346,-0.004 -0.26063,0.21848 -0.26063,0.49543 0,0.38282 0.16783,0.50339 0.70115,0.50339 0.38553,0 0.70118,-0.0723 0.70118,-0.16086 z m 12.03448,4.51969 c 0.18174,-0.0727 0.39879,-0.0638 0.48243,0.0193 0.0835,0.0835 -0.065,0.14307 -0.33023,0.13224 -0.29311,-0.0116 -0.35305,-0.0719 -0.15197,-0.15197 z M 162.06124,90.7492 c -0.58011,-0.21639 -0.58912,-0.25038 -0.1744,-0.659968 0.41299,-0.408003 0.45092,-0.407527 0.68707,0.0085 0.13766,0.24226 0.40753,0.440477 0.60014,0.440477 0.19257,0 0.40266,0.08495 0.46677,0.188781 0.16899,0.274046 -0.86517,0.288508 -1.57943,0.02204 z"
         id="path5"
         sodipodi:nodetypes="csscccsssssscsssssssccsssssscsssssssccsssssssssscssssscssccsssssscssscsccsccssssscscssscccsssssccccccssccsssssscssssccccccscsccc" /><path
         style="fill:#1d5bd6;stroke-width:3.86688"
         d="m 54.818685,152.56894 c -6.30996,-0.15738 -9.826267,-0.66364 -13.153809,-1.50198 -7.026042,-1.77014 -13.56873,-5.08247 -18.492216,-9.36199 -1.507871,-1.31068 -4.051456,-4.35009 -3.640418,-4.35009 0.109587,0 0.321261,0.12219 0.47041,0.27107 0.19377,0.19373 0.267511,-1.08141 0.258269,-4.46772 -0.01431,-5.26004 0.24083,-7.5231 1.371533,-12.16409 1.850025,-7.59336 5.705102,-15.12396 10.997403,-21.482621 2.887881,-3.469754 8.614812,-9.089693 12.019437,-11.794898 3.036415,-2.412638 3.048658,-2.426671 4.371279,-5.011566 2.053601,-4.013507 3.41431,-5.904185 6.420824,-8.921595 3.178639,-3.190163 6.177225,-5.319706 10.305455,-7.318757 1.534271,-0.742951 2.959481,-1.464767 3.167136,-1.604029 0.207652,-0.139246 0.915566,-0.483801 1.573137,-0.765643 0.663986,-0.284602 1.195582,-0.679608 1.195582,-0.888405 0,-0.541456 1.037052,-1.865794 1.461052,-1.865794 0.235648,0 0.314223,-0.173507 0.227914,-0.503402 -0.07819,-0.298949 -0.0077,-0.503407 0.17343,-0.503407 0.167784,0 0.683796,-0.279382 1.146658,-0.62089 0.462866,-0.341484 0.924788,-0.56946 1.026499,-0.506604 0.101699,0.06288 0.325089,-0.224086 0.496372,-0.637614 0.171303,-0.413548 0.457205,-0.751908 0.635352,-0.751908 0.178148,0 0.645785,-0.509492 1.039198,-1.132207 0.393409,-0.622716 0.856874,-1.132409 1.029917,-1.132657 0.173043,-2.47e-4 0.513638,-0.19868 0.756873,-0.440929 0.243227,-0.24226 0.887357,-0.470391 1.431385,-0.506948 0.544028,-0.03674 1.16672,-0.22718 1.38376,-0.423598 0.217048,-0.196438 0.677258,-0.395907 1.022706,-0.443303 0.345428,-0.04741 0.761845,-0.170105 0.925325,-0.272693 0.163492,-0.102588 0.363062,-0.07997 0.443563,0.05027 0.159895,0.258733 2.064285,0.196553 2.337163,-0.07633 0.093,-0.093 -0.278299,-0.570431 -0.825173,-1.060937 -2.51692,-2.257579 -7.769755,-5.096935 -12.32086,-6.65989 -1.522794,-0.522961 -2.64291,-0.959482 -2.489144,-0.970039 0.641188,-0.04404 5.950495,1.870504 8.36746,3.01731 3.450214,1.63706 5.816723,3.093205 9.516329,5.85552 l 3.061257,2.285692 -1.802749,0.790963 c -5.129757,2.2507 -9.994122,6.182937 -13.562272,10.963425 l -1.42937,1.91502 -2.844367,0.13797 c -7.108302,0.34481 -13.506199,3.960643 -17.406979,9.837733 -1.103953,1.663267 -2.725642,5.640584 -3.167306,7.768073 -0.283907,1.36757 -0.375706,1.490003 -2.044962,2.727479 -6.302026,4.671883 -9.859698,11.713029 -9.8501,19.494819 0.0043,3.29308 0.396808,5.5731 1.435774,8.33518 2.715719,7.21974 8.500147,12.53813 16.160802,14.8588 1.989353,0.60266 2.745862,0.68518 7.514931,0.81974 l 5.302897,0.14965 -1.602657,2.76873 c -2.865047,5.40582 -5.247267,11.61755 -7.549869,17.17816 -2.242165,-0.66595 -4.522907,-1.00427 -6.864831,-1.08307 z M 70.628699,44.556696 c 0.181705,-0.0727 0.398788,-0.06377 0.482429,0.01972 0.08364,0.08364 -0.06504,0.143114 -0.330348,0.132209 -0.293226,-0.01199 -0.352853,-0.07173 -0.152084,-0.152085 z m -1.006808,-0.251695 c 0.181705,-0.0727 0.398791,-0.06377 0.482428,0.01972 0.08364,0.08364 -0.06504,0.143113 -0.330348,0.132209 -0.293225,-0.01199 -0.352853,-0.07173 -0.152084,-0.152085 z m -4.782333,-1.006809 c 0.181705,-0.0727 0.398792,-0.06376 0.482428,0.01972 0.08364,0.08364 -0.065,0.143113 -0.330347,0.132209 -0.293226,-0.01199 -0.352853,-0.07173 -0.152085,-0.152085 z M 59.805526,42.79479 c 0.181705,-0.0727 0.398788,-0.06377 0.482425,0.01972 0.08364,0.08364 -0.065,0.143113 -0.330348,0.132208 -0.293226,-0.01199 -0.352853,-0.07173 -0.152085,-0.152084 z"
         id="path4"
         sodipodi:nodetypes="ccsssssssssssssssssssscsssssssssscsscsssscssscssccccccccccccccscccscccsc" /><path
         style="fill:#e73525;stroke-width:3.86688"
         d="m 127.79312,63.704569 c -0.33565,-0.361244 -1.7894,-1.544592 -3.23067,-2.62967 -4.29139,-3.230866 -9.41248,-5.463194 -14.69369,-6.405109 -1.95715,-0.349064 -3.35459,-0.413552 -6.79595,-0.313643 -3.817413,0.110825 -4.689341,0.220219 -7.338063,0.920512 -2.622122,0.69327 -3.033257,0.745825 -3.220286,0.411625 -0.430508,-0.769273 -8.704803,-6.046316 -11.89635,-7.58706 -5.62536,-2.715681 -12.347131,-4.546538 -18.877632,-5.141833 -1.799666,-0.164033 -3.358592,-0.350417 -3.464282,-0.41412 -0.554557,-0.334331 5.34428,-6.794152 9.001721,-9.857808 10.83098,-9.07257 26.523871,-14.082063 40.398122,-12.895916 7.46268,0.638005 15.2849,2.868574 21.52048,6.136752 l 2.01361,1.055365 0.30007,1.761914 c 0.70949,4.166594 1.08381,8.594366 1.08528,12.836785 0.003,7.902223 -0.68135,13.266522 -2.54364,19.947363 -0.86781,3.113212 -1.14181,3.377018 -2.25869,2.174839 z"
         id="path3" /><path
         style="fill:#049848;stroke-width:3.86688"
         d="m 52.910444,183.07718 c -0.132015,-0.34416 1.166233,-5.22571 4.561716,-17.15311 3.569318,-12.53802 5.215911,-14.76519 8.271854,-22.83321 1.351302,-3.56759 3.474418,-7.17264 5.030653,-9.36489 0.09625,-0.13573 4.366089,-0.33101 25.071396,-0.14579 13.704607,0.12258 24.918447,0.0669 24.918447,0.14849 0,0.20031 -0.61827,0.71665 -4.12092,3.44168 -1.64358,1.2787 -3.96035,3.10967 -5.14842,4.06889 -1.18806,0.95918 -4.88365,3.76167 -8.21243,6.22769 -3.328775,2.46603 -6.505381,4.86044 -7.059127,5.32099 -0.553745,0.46051 -1.178262,0.90064 -1.387824,0.97801 -0.361167,0.13341 -15.306592,11.11315 -25.921812,19.04367 -11.691861,8.73482 -14.377385,10.60759 -15.211255,10.60759 -0.363951,0 -0.720493,-0.15313 -0.792282,-0.34029 z"
         id="path2"
         sodipodi:nodetypes="csssssssssssscc" /></g><text
       xml:space="preserve"
       style="font-size:60.0116px;font-family:Anta;-inkscape-font-specification:Anta;text-align:start;writing-mode:lr-tb;direction:ltr;text-anchor:start;white-space:pre;inline-size:113.157;display:inline;fill:#e1e1e1;stroke:#280554;stroke-width:28.3519"
       x="324.91434"
       y="104.13908"
       id="text1"
       transform="scale(0.73334906,1.3636071)" /><text
       xml:space="preserve"
       transform="matrix(0.26458333,0,0,0.26458333,6.114627,6.474415)"
       id="text2"
       style="font-size:32px;font-family:Anta;-inkscape-font-specification:Anta;text-align:start;writing-mode:lr-tb;direction:ltr;white-space:pre;shape-inside:url(#rect2);display:inline;fill:#e1e1e1;stroke:#280554;stroke-width:15.1181" /><path
       d="m 204.81256,85.641675 h 15.14121 q 4.49585,0 6.6921,0.387574 2.22209,0.361735 3.95325,1.550294 1.757,1.188558 2.91972,3.178102 1.16272,1.963706 1.16272,4.418338 0,2.661338 -1.44694,4.883427 -1.4211,2.22209 -3.87574,3.33313 3.46233,1.00769 5.32268,3.43649 1.86035,2.42879 1.86035,5.71024 0,2.58383 -1.2144,5.03846 -1.18855,2.42879 -3.28145,3.90157 -2.06706,1.44694 -5.11597,1.78284 -1.91203,0.20671 -9.22425,0.25838 h -12.89328 z m 7.64812,6.304529 v 8.759156 h 5.01262 q 4.47001,0 5.55522,-0.12919 1.9637,-0.23254 3.07475,-1.343585 1.13688,-1.136882 1.13688,-2.971396 0,-1.757 -0.98185,-2.842206 -0.95602,-1.111044 -2.86805,-1.343588 -1.13688,-0.129191 -6.53707,-0.129191 z m 0,15.063686 v 10.12859 h 7.07968 q 4.13411,0 5.24516,-0.23254 1.70532,-0.31006 2.76469,-1.49862 1.0852,-1.2144 1.0852,-3.22978 0,-1.70532 -0.82682,-2.89388 -0.82682,-1.18856 -2.40296,-1.73116 -1.55029,-0.54261 -6.76961,-0.54261 z m 46.37963,7.77731 7.2347,1.2144 q -1.39526,3.97909 -4.41834,6.07198 -2.99723,2.06706 -7.51892,2.06706 -7.15719,0 -10.59368,-4.67672 -2.71301,-3.74654 -2.71301,-9.45679 0,-6.8213 3.56567,-10.671192 3.56568,-3.875735 9.01755,-3.875735 6.12366,0 9.6635,4.056603 3.53983,4.030764 3.3848,12.376514 h -18.19011 q 0.0775,3.22978 1.757,5.03845 1.67948,1.78284 4.18579,1.78284 1.70533,0 2.86805,-0.93017 1.16272,-0.93018 1.757,-2.99724 z m 0.41341,-7.33806 q -0.0775,-3.15226 -1.62781,-4.78007 -1.5503,-1.65365 -3.77238,-1.65365 -2.37712,0 -3.92741,1.73116 -1.5503,1.73117 -1.52446,4.70256 z m 10.56784,8.2424 7.28638,-1.11105 q 0.46509,2.11874 1.88619,3.22978 1.4211,1.08521 3.97909,1.08521 2.81636,0 4.23747,-1.03353 0.95601,-0.72347 0.95601,-1.93787 0,-0.82682 -0.51676,-1.36942 -0.54261,-0.51677 -2.4288,-0.95602 -8.785,-1.93787 -11.13627,-3.53984 -3.25562,-2.22208 -3.25562,-6.17533 0,-3.56568 2.81637,-5.994473 2.81636,-2.428794 8.73332,-2.428794 5.63273,0 8.37158,1.834515 2.73886,1.834514 3.77239,5.426032 l -6.84714,1.26607 q -0.43925,-1.60197 -1.67948,-2.45463 -1.2144,-0.85266 -3.48816,-0.85266 -2.86805,0 -4.10828,0.80098 -0.82682,0.56844 -0.82682,1.47278 0,0.77515 0.72347,1.31775 0.98185,0.72347 6.76961,2.04122 5.81361,1.31775 8.11321,3.22978 2.27376,1.93787 2.27376,5.40019 0,3.77238 -3.15226,6.4854 -3.15227,2.71301 -9.3276,2.71301 -5.6069,0 -8.88835,-2.27376 -3.25562,-2.27377 -4.26331,-6.17534 z M 314.3925,96.080321 v 5.787759 h -4.96094 v 11.05877 q 0,3.35897 0.12919,3.92741 0.15503,0.5426 0.64596,0.90434 0.51676,0.36173 1.24023,0.36173 1.00769,0 2.91972,-0.69763 l 0.62012,5.63273 q -2.53215,1.08521 -5.73609,1.08521 -1.9637,0 -3.53983,-0.64596 -1.57614,-0.67179 -2.32545,-1.70532 -0.72347,-1.05937 -1.00769,-2.8422 -0.23254,-1.26608 -0.23254,-5.11597 v -11.96311 h -3.33313 v -5.787759 h 3.33313 v -5.451867 l 7.28638,-4.23747 v 9.689337 z m 44.02834,13.513399 7.41558,2.35128 q -1.70533,6.20117 -5.68441,9.22424 -3.95325,2.99724 -10.05108,2.99724 -7.54476,0 -12.40235,-5.14181 -4.85759,-5.16765 -4.85759,-14.10767 0,-9.456797 4.88343,-14.676119 4.88343,-5.245161 12.8416,-5.245161 6.95049,0 11.29131,4.108278 2.58382,2.428794 3.87573,6.976323 l -7.5706,1.808676 q -0.67179,-2.945558 -2.81637,-4.650881 -2.11873,-1.705324 -5.16764,-1.705324 -4.21163,0 -6.84713,3.023073 -2.60966,3.023073 -2.60966,9.792695 0,7.18302 2.58382,10.23193 2.58382,3.04892 6.71794,3.04892 3.04891,0 5.24516,-1.93787 2.19625,-1.93787 3.15226,-6.09782 z m 13.92682,13.9268 V 85.641675 h 7.26054 v 37.878845 z m 13.02246,-14.10767 q 0,-3.61735 1.78284,-7.00216 1.78284,-3.384811 5.03846,-5.167649 3.28145,-1.782838 7.31222,-1.782838 6.22701,0 10.2061,4.056603 3.97909,4.030764 3.97909,10.206104 0,6.22701 -4.03077,10.33529 -4.00492,4.08244 -10.10275,4.08244 -3.77238,0 -7.20886,-1.70532 -3.41065,-1.70533 -5.19349,-4.98678 -1.78284,-3.3073 -1.78284,-8.03569 z m 7.44141,0.38757 q 0,4.08244 1.93787,6.25285 1.93787,2.17042 4.78007,2.17042 2.84221,0 4.75424,-2.17042 1.93787,-2.17041 1.93787,-6.30452 0,-4.03077 -1.93787,-6.20118 -1.91203,-2.17041 -4.75424,-2.17041 -2.8422,0 -4.78007,2.17041 -1.93787,2.17041 -1.93787,6.25285 z m 44.62263,13.7201 v -4.10828 q -1.49862,2.19625 -3.95325,3.46233 -2.4288,1.26607 -5.14181,1.26607 -2.76469,0 -4.96094,-1.2144 -2.19625,-1.21439 -3.1781,-3.41064 -0.98186,-2.19625 -0.98186,-6.07199 V 96.080321 h 7.26055 v 12.609059 q 0,5.78776 0.38757,7.10551 0.41341,1.29191 1.47278,2.06706 1.05937,0.74931 2.68717,0.74931 1.86036,0 3.33314,-1.00769 1.47278,-1.03353 2.01538,-2.53215 0.5426,-1.52445 0.5426,-7.41557 V 96.080321 h 7.26054 v 27.440199 z m 39.42915,0 h -6.74378 v -4.03076 q -1.67948,2.35128 -3.97909,3.514 -2.27376,1.13688 -4.5992,1.13688 -4.7284,0 -8.11321,-3.79822 -3.35897,-3.82406 -3.35897,-10.64535 0,-6.97632 3.28146,-10.593676 3.28145,-3.643191 8.29407,-3.643191 4.59921,0 7.95818,3.824059 V 85.641675 h 7.26054 z m -19.37867,-14.31438 q 0,4.3925 1.21439,6.35621 1.757,2.8422 4.90927,2.8422 2.5063,0 4.2633,-2.11873 1.757,-2.14458 1.757,-6.38205 0,-4.72839 -1.70532,-6.79545 -1.70532,-2.0929 -4.36666,-2.0929 -2.58382,0 -4.34082,2.06706 -1.73116,2.04122 -1.73116,6.12366 z m 41.31532,14.31438 V 85.641675 h 16.09722 q 6.07198,0 8.81083,1.03353 2.7647,1.007691 4.41834,3.617352 1.65365,2.609662 1.65365,5.968632 0,4.263311 -2.50631,7.053841 -2.50631,2.76469 -7.49309,3.48816 2.48047,1.44694 4.08244,3.1781 1.62781,1.73116 4.36667,6.1495 l 4.62504,7.38973 h -9.14674 l -5.52938,-8.24239 q -2.94556,-4.41834 -4.03076,-5.55522 -1.08521,-1.16272 -2.2996,-1.57613 -1.2144,-0.43925 -3.8499,-0.43925 h -1.55029 v 15.81299 z m 7.64812,-21.85914 h 5.65857 q 5.50354,0 6.87297,-0.46509 1.36942,-0.46509 2.14457,-1.601969 0.77515,-1.136883 0.77515,-2.842206 0,-1.912029 -1.03353,-3.07475 -1.00769,-1.188558 -2.86804,-1.498617 -0.93018,-0.129191 -5.58106,-0.129191 h -5.96863 z m 46.37963,13.12582 7.2347,1.2144 q -1.39526,3.97909 -4.41833,6.07198 -2.99724,2.06706 -7.51893,2.06706 -7.15719,0 -10.59367,-4.67672 -2.71302,-3.74654 -2.71302,-9.45679 0,-6.8213 3.56568,-10.671192 3.56567,-3.875735 9.01754,-3.875735 6.12366,0 9.6635,4.056603 3.53984,4.030764 3.38481,12.376514 h -18.19012 q 0.0775,3.22978 1.757,5.03845 1.67949,1.78284 4.1858,1.78284 1.70532,0 2.86804,-0.93017 1.16272,-0.93018 1.757,-2.99724 z m 0.41341,-7.33806 q -0.0775,-3.15226 -1.62781,-4.78007 -1.55029,-1.65365 -3.77238,-1.65365 -2.37712,0 -3.92741,1.73116 -1.55029,1.73117 -1.52446,4.70256 z m 10.56784,8.2424 7.28638,-1.11105 q 0.46509,2.11874 1.88619,3.22978 1.42111,1.08521 3.97909,1.08521 2.81637,0 4.23747,-1.03353 0.95602,-0.72347 0.95602,-1.93787 0,-0.82682 -0.51677,-1.36942 -0.5426,-0.51677 -2.42879,-0.95602 -8.785,-1.93787 -11.13628,-3.53984 -3.25562,-2.22208 -3.25562,-6.17533 0,-3.56568 2.81637,-5.994473 2.81637,-2.428794 8.73332,-2.428794 5.63274,0 8.37159,1.834515 2.73885,1.834514 3.77238,5.426032 l -6.84713,1.26607 q -0.43925,-1.60197 -1.67949,-2.45463 -1.21439,-0.85266 -3.48816,-0.85266 -2.86804,0 -4.10828,0.80098 -0.82682,0.56844 -0.82682,1.47278 0,0.77515 0.72347,1.31775 0.98185,0.72347 6.76962,2.04122 5.8136,1.31775 8.1132,3.22978 2.27377,1.93787 2.27377,5.40019 0,3.77238 -3.15227,6.4854 -3.15226,2.71301 -9.3276,2.71301 -5.6069,0 -8.88835,-2.27376 -3.25562,-2.27377 -4.26331,-6.17534 z m 47.87825,-0.90434 7.2347,1.2144 q -1.39526,3.97909 -4.41834,6.07198 -2.99723,2.06706 -7.51892,2.06706 -7.15719,0 -10.59368,-4.67672 -2.71301,-3.74654 -2.71301,-9.45679 0,-6.8213 3.56568,-10.671192 3.56567,-3.875735 9.01754,-3.875735 6.12366,0 9.6635,4.056603 3.53983,4.030764 3.3848,12.376514 h -18.19011 q 0.0775,3.22978 1.757,5.03845 1.67948,1.78284 4.18579,1.78284 1.70533,0 2.86805,-0.93017 1.16272,-0.93018 1.757,-2.99724 z m 0.41341,-7.33806 q -0.0775,-3.15226 -1.62781,-4.78007 -1.55029,-1.65365 -3.77238,-1.65365 -2.37712,0 -3.92741,1.73116 -1.5503,1.73117 -1.52446,4.70256 z m 13.12582,16.07138 V 85.641675 h 7.26055 v 37.878845 z m 14.70194,0 V 85.641675 h 7.26054 v 37.878845 z"
       id="text3"
       style="font-weight:bold;font-size:52.9167px;font-family:Arial;-inkscape-font-specification:'Arial, Bold';stroke-width:3.5271"
       aria-label="Best Cloud Resell" /></g></svg>
